<svg width="600" height="600" viewBox="0 0 600 600" fill="none" xmlns="http://www.w3.org/2000/svg">
  <rect width="600" height="600" fill="#F3F4F6"/>
  <path d="M300 200C266.863 200 240 226.863 240 260C240 293.137 266.863 320 300 320C333.137 320 360 293.137 360 260C360 226.863 333.137 200 300 200ZM300 210C327.614 210 350 232.386 350 260C350 287.614 327.614 310 300 310C272.386 310 250 287.614 250 260C250 232.386 272.386 210 300 210Z" fill="#9CA3AF"/>
  <path d="M225 340C220.029 340 216 344.029 216 349V390C216 394.971 220.029 399 225 399H375C379.971 399 384 394.971 384 390V349C384 344.029 379.971 340 375 340H225ZM226 350H374V389H226V350Z" fill="#9CA3AF"/>
  <text x="300" y="450" font-family="system-ui, -apple-system, sans-serif" font-size="24" fill="#6B7280" text-anchor="middle">Car Parts</text>
</svg>
